REM DIRINDEX 1\6,1\2\7,1\2\8,1\2\9,1\3\10,1\3\11,1\4\12,1\4\13,1\4\14,1\5\15,1\5\16,1\5\17
REM DIRNAME folder01,folder02,folder03,folder04,folder05,folder06,folder07,folder08,folder09,folder10,folder11,folder12,folder13,folder14,folder15,folder16,folder17
TITLE ""
FILE "3Q_t_0829-0843.mp3" MP3
  TRACK 01 AUDIO
    TITLE "6:cjc041_3268"
    INDEX 01 00:00:00
  TRACK 02 AUDIO
    TITLE "0:"
    INDEX 01 00:10:66
  TRACK 03 AUDIO
    TITLE "10:cjc041_3269"
    INDEX 01 00:12:05
  TRACK 04 AUDIO
    TITLE "0:"
    INDEX 01 00:13:18
  TRACK 05 AUDIO
    TITLE "11:cjc041_3270"
    INDEX 01 00:13:73
  TRACK 06 AUDIO
    TITLE "0:"
    INDEX 01 00:15:13
  TRACK 07 AUDIO
    TITLE "10:cjc041_3271"
    INDEX 01 00:15:70
  TRACK 08 AUDIO
    TITLE "0:"
    INDEX 01 00:17:02
  TRACK 09 AUDIO
    TITLE "11:cjc041_3272"
    INDEX 01 00:17:61
  TRACK 10 AUDIO
    TITLE "0:"
    INDEX 01 00:18:70
  TRACK 11 AUDIO
    TITLE "10:cjc041_3273"
    INDEX 01 00:19:54
  TRACK 12 AUDIO
    TITLE "0:"
    INDEX 01 00:20:67
  TRACK 13 AUDIO
    TITLE "11:cjc041_3274"
    INDEX 01 00:21:49
  TRACK 14 AUDIO
    TITLE "0:"
    INDEX 01 00:23:06
  TRACK 15 AUDIO
    TITLE "10:cjc041_3275"
    INDEX 01 00:23:57
  TRACK 16 AUDIO
    TITLE "0:"
    INDEX 01 00:25:01
  TRACK 17 AUDIO
    TITLE "11:cjc041_3276"
    INDEX 01 00:25:56
  TRACK 18 AUDIO
    TITLE "0:"
    INDEX 01 00:27:06
  TRACK 19 AUDIO
    TITLE "10:cjc041_3277"
    INDEX 01 00:27:61
  TRACK 20 AUDIO
    TITLE "0:"
    INDEX 01 00:28:72
  TRACK 21 AUDIO
    TITLE "11:cjc041_3278"
    INDEX 01 00:29:44
  TRACK 22 AUDIO
    TITLE "0:"
    INDEX 01 00:30:65
  TRACK 23 AUDIO
    TITLE "10:cjc041_3279"
    INDEX 01 00:31:33
  TRACK 24 AUDIO
    TITLE "0:"
    INDEX 01 00:32:52
  TRACK 25 AUDIO
    TITLE "11:cjc041_3280"
    INDEX 01 00:33:28
  TRACK 26 AUDIO
    TITLE "0:"
    INDEX 01 00:34:53
  TRACK 27 AUDIO
    TITLE "10:cjc041_3281"
    INDEX 01 00:35:35
  TRACK 28 AUDIO
    TITLE "0:"
    INDEX 01 00:36:46
  TRACK 29 AUDIO
    TITLE "11:cjc041_3282"
    INDEX 01 00:37:24
  TRACK 30 AUDIO
    TITLE "0:"
    INDEX 01 00:40:15
  TRACK 31 AUDIO
    TITLE "10:cjc041_3283"
    INDEX 01 00:40:72
  TRACK 32 AUDIO
    TITLE "0:"
    INDEX 01 00:41:73
  TRACK 33 AUDIO
    TITLE "11:cjc041_3284"
    INDEX 01 00:42:51
  TRACK 34 AUDIO
    TITLE "0:"
    INDEX 01 00:43:64
  TRACK 35 AUDIO
    TITLE "10:cjc041_3285"
    INDEX 01 00:44:40
  TRACK 36 AUDIO
    TITLE "0:"
    INDEX 01 00:45:47
  TRACK 37 AUDIO
    TITLE "11:cjc041_3286"
    INDEX 01 00:46:19
  TRACK 38 AUDIO
    TITLE "0:"
    INDEX 01 00:47:23
  TRACK 39 AUDIO
    TITLE "10:cjc041_3287"
    INDEX 01 00:48:04
  TRACK 40 AUDIO
    TITLE "0:"
    INDEX 01 00:49:18
  TRACK 41 AUDIO
    TITLE "11:cjc041_3288"
    INDEX 01 00:49:72
  TRACK 42 AUDIO
    TITLE "0:"
    INDEX 01 00:51:63
  TRACK 43 AUDIO
    TITLE "10:cjc041_3289"
    INDEX 01 00:52:47
  TRACK 44 AUDIO
    TITLE "0:"
    INDEX 01 00:53:62
  TRACK 45 AUDIO
    TITLE "11:cjc041_3290"
    INDEX 01 00:54:42
  TRACK 46 AUDIO
    TITLE "0:"
    INDEX 01 00:57:05
  TRACK 47 AUDIO
    TITLE "10:cjc041_3291"
    INDEX 01 00:57:58
  TRACK 48 AUDIO
    TITLE "0:"
    INDEX 01 00:59:00
  TRACK 49 AUDIO
    TITLE "11:cjc041_3292"
    INDEX 01 00:59:53
  TRACK 50 AUDIO
    TITLE "0:"
    INDEX 01 01:02:46
  TRACK 51 AUDIO
    TITLE "10:cjc041_3293"
    INDEX 01 01:03:26
  TRACK 52 AUDIO
    TITLE "0:"
    INDEX 01 01:04:39
  TRACK 53 AUDIO
    TITLE "11:cjc041_3294"
    INDEX 01 01:05:13
  TRACK 54 AUDIO
    TITLE "0:"
    INDEX 01 01:06:49
  TRACK 55 AUDIO
    TITLE "10:cjc041_3295"
    INDEX 01 01:07:25
  TRACK 56 AUDIO
    TITLE "0:"
    INDEX 01 01:08:40
  TRACK 57 AUDIO
    TITLE "11:cjc041_3296"
    INDEX 01 01:09:16
  TRACK 58 AUDIO
    TITLE "0:"
    INDEX 01 01:10:47
  TRACK 59 AUDIO
    TITLE "10:cjc041_3297"
    INDEX 01 01:11:19
  TRACK 60 AUDIO
    TITLE "0:"
    INDEX 01 01:12:30
  TRACK 61 AUDIO
    TITLE "11:cjc041_3298"
    INDEX 01 01:13:06
  TRACK 62 AUDIO
    TITLE "0:"
    INDEX 01 01:14:25
